name C:\Users\Nicos\Desktop\Gil_twoSteps\Study2\ExperimentalData\IK_Splined\twoSteps_IK_BSplines_225_meshInts_study2_p02_s_01_lowIK_modROI.mot
datacolumns 38
datarows 13
range 0.32800000 0.33381333
endheader
                time	         pelvis_tilt	         pelvis_list	     pelvis_rotation	           pelvis_tx	           pelvis_ty	           pelvis_tz	       hip_flexion_r	     hip_adduction_r	      hip_rotation_r	        knee_angle_r	       ankle_angle_r	    subtalar_angle_r	         mtp_angle_r	       hip_flexion_l	     hip_adduction_l	      hip_rotation_l	        knee_angle_l	       ankle_angle_l	    subtalar_angle_l	         mtp_angle_l	    lumbar_extension	      lumbar_bending	     lumbar_rotation	          arm_flex_r	           arm_add_r	           arm_rot_r	        elbow_flex_r	           pro_sup_r	        wrist_flex_r	         wrist_dev_r	          arm_flex_l	           arm_add_l	           arm_rot_l	        elbow_flex_l	           pro_sup_l	        wrist_flex_l	         wrist_dev_l	
          0.32800000	        -23.90388653	         -6.37851962	          9.46795777	         -1.36070112	          0.83287164	          0.29608056	         79.49396955	         -5.90570050	         -3.03616041	        -86.15229313	          5.84186737	        -23.61916764	          0.17727487	         -5.33386896	         -4.89997872	         10.00308130	        -37.52523043	        -33.62535624	          6.85492484	          6.81059976	        -21.33314545	         17.03258556	         -0.33162196	        -65.85701253	          7.89203194	        -31.54222674	         65.10490721	         72.01285473	         -3.60717563	          8.11919892	         31.24074736	         -6.62954140	         22.80088163	        139.51624984	         49.05154566	         -6.15730415	          5.23676913	
          0.32830045	        -23.86188384	         -6.32830343	          9.43953263	         -1.35920233	          0.83307636	          0.29608839	         79.27812494	         -5.90077520	         -3.01124683	        -86.03781781	          5.80052140	        -23.58100743	          0.20859204	         -5.26805194	         -4.82980756	          9.88313653	        -37.74410571	        -33.63255714	          6.99663115	          6.88644260	        -21.41430436	         16.99419542	         -0.36906989	        -65.68173096	          7.77137555	        -31.48287482	         65.16295253	         72.00748771	         -3.59860442	          8.13092432	         30.91568554	         -6.69098538	         22.64646265	        139.35910877	         49.05285796	         -6.19126618	          5.25562004	
          0.32924977	        -23.72909040	         -6.17255558	          9.35070796	         -1.35446669	          0.83371900	          0.29611564	         78.59243546	         -5.88627107	         -2.93694535	        -85.67201722	          5.68032080	        -23.45636874	          0.31357314	         -5.05678494	         -4.61431444	          9.50019165	        -38.44051494	        -33.65170381	          7.39744979	          7.11743126	        -21.66964640	         16.87458789	         -0.48901104	        -65.12581667	          7.38912969	        -31.28877627	         65.34772640	         71.99183547	         -3.57154492	          8.16795017	         29.88939587	         -6.88051199	         22.14948538	        138.85036559	         49.05269949	         -6.29852119	          5.31594528	
          0.32993778	        -23.63284632	         -6.05977452	          9.28636538	         -1.35103456	          0.83418461	          0.29613547	         78.09536289	         -5.87579427	         -2.88324175	        -85.40676935	          5.59355113	        -23.36590296	          0.38985712	         -4.90356073	         -4.45834257	          9.22252309	        -38.94539443	        -33.66546104	          7.68638958	          7.28455327	        -21.85466828	         16.78795882	         -0.57599138	        -64.72285132	          7.11206521	        -31.14788705	         65.48168576	         71.98053476	         -3.55193441	          8.19478375	         29.14562326	         -7.01771794	         21.78900351	        138.48125176	         49.05244229	         -6.37625201	          5.35969095	
          0.32993778	        -23.63284632	         -6.05977452	          9.28636538	         -1.35103456	          0.83418461	          0.29613547	         78.09536289	         -5.87579427	         -2.88324175	        -85.40676935	          5.59355113	        -23.36590296	          0.38985712	         -4.90356073	         -4.45834257	          9.22252309	        -38.94539443	        -33.66546104	          7.68638958	          7.28455327	        -21.85466828	         16.78795882	         -0.57599138	        -64.72285132	          7.11206521	        -31.14788705	         65.48168576	         71.98053476	         -3.55193441	          8.19478375	         29.14562326	         -7.01771794	         21.78900351	        138.48125176	         49.05244229	         -6.37625201	          5.35969095	
          0.33023823	        -23.59081646	         -6.01052295	          9.25826694	         -1.34953574	          0.83438794	          0.29614413	         77.87829096	         -5.87121904	         -2.85978934	        -85.29093543	          5.55565876	        -23.32639649	          0.42317039	         -4.83664761	         -4.39022955	          9.10126504	        -39.16587565	        -33.67146883	          7.81256978	          7.35753556	        -21.93546746	         16.75012784	         -0.61397576	        -64.54687607	          6.99107096	        -31.08636063	         65.54018591	         71.97559974	         -3.54337049	          8.20650199	         28.82081725	         -7.07763587	         21.63158083	        138.32005950	         49.05232997	         -6.41019711	          5.37879471	
          0.33118755	        -23.45811213	         -5.85858454	          9.17097278	         -1.34480050	          0.83502391	          0.29617660	         77.18774871	         -5.85781269	         -2.79113688	        -84.92038022	          5.45408858	        -23.19596674	          0.53596585	         -4.62084641	         -4.18314905	          8.71405681	        -39.86857326	        -33.68399453	          8.15114120	          7.57531856	        -22.18879538	         16.63229104	         -0.73571623	        -63.98756651	          6.60851972	        -30.88414437	         65.72577777	         71.96174193	         -3.51645940	          8.24335302	         27.79784045	         -7.26120819	         21.12449163	        137.79318989	         49.04625219	         -6.51699788	          5.43995915	
          0.33187556	        -23.36194678	         -5.74892054	          9.10788965	         -1.34136871	          0.83548403	          0.29620076	         76.68670519	         -5.84822570	         -2.74205197	        -84.65125998	          5.38271097	        -23.10074840	          0.61864188	         -4.46390602	         -4.03406922	          8.43292708	        -40.37859662	        -33.69227765	          8.38911975	          7.73157855	        -22.37215166	         16.54709791	         -0.82415941	        -63.58180358	          6.33123581	        -30.73662675	         65.86037750	         71.95191212	         -3.49697387	          8.27003922	         27.05684675	         -7.39354419	         20.75578750	        137.40918117	         49.04114283	         -6.59434555	          5.48438679	
          0.33187556	        -23.36194678	         -5.74892054	          9.10788965	         -1.34136871	          0.83548403	          0.29620076	         76.68670519	         -5.84822570	         -2.74205197	        -84.65125998	          5.38271097	        -23.10074840	          0.61864188	         -4.46390602	         -4.03406922	          8.43292708	        -40.37859662	        -33.69227765	          8.38911975	          7.73157855	        -22.37215166	         16.54709791	         -0.82415941	        -63.58180358	          6.33123581	        -30.73662675	         65.86037750	         71.95191212	         -3.49697387	          8.27003922	         27.05684675	         -7.39354419	         20.75578750	        137.40918117	         49.04114283	         -6.59434555	          5.48438679	
          0.33217601	        -23.31995131	         -5.70103020	          9.08034120	         -1.33987004	          0.83568497	          0.29621131	         76.46789914	         -5.84403906	         -2.72061656	        -84.53373498	          5.35154032	        -23.05916649	          0.65474656	         -4.39537004	         -3.96896596	          8.31015754	        -40.60132416	        -33.69589489	          8.49304515	          7.79981739	        -22.45222346	         16.50989402	         -0.86278261	        -63.40460663	          6.21014574	        -30.67220571	         65.91915729	         71.94761943	         -3.48846453	          8.28169309	         26.73325429	         -7.45133541	         20.59477415	        137.24148430	         49.03891157	         -6.62812333	          5.50378836	
          0.33312532	        -23.18749545	         -5.55388273	          8.99513515	         -1.33513566	          0.83631176	          0.29625169	         75.77125271	         -5.83181425	         -2.65898358	        -84.15762457	          5.27683807	        -22.92113250	          0.77731711	         -4.17372615	         -3.77265948	          7.91822552	        -41.31188914	        -33.69878083	          8.75271268	          7.99968310	        -22.70260865	         16.39398284	         -0.98656474	        -62.84057640	          5.82791935	        -30.46010591	         66.10510557	         71.93607817	         -3.46182206	          8.31822389	         25.71602755	         -7.62747031	         20.07617441	        136.69035920	         49.02519084	         -6.73408753	          5.56589863	
          0.33381333	        -23.09155400	         -5.44822754	          8.93381835	         -1.33170463	          0.83676411	          0.29628264	         75.26510142	         -5.82319259	         -2.61576226	        -83.88390577	          5.22834479	        -22.81951375	          0.86816623	         -4.01188048	         -3.63261748	          7.63321792	        -41.82849064	        -33.69884412	          8.92459621	          8.14079752	        -22.88345460	         16.31036570	         -1.07669036	        -62.43081067	          5.55099030	        -30.30435643	         66.23992479	         71.92819373	         -3.44257091	          8.34463037	         24.98003067	         -7.75358905	         19.69798020	        136.28588390	         49.01366303	         -6.81070415	          5.61110485	
          0.33381333	        -23.09155400	         -5.44822754	          8.93381835	         -1.33170463	          0.83676411	          0.29628264	         75.26510142	         -5.82319259	         -2.61576226	        -83.88390577	          5.22834479	        -22.81951375	          0.86816623	         -4.01188048	         -3.63261748	          7.63321792	        -41.82849064	        -33.69884412	          8.92459621	          8.14079752	        -22.88345460	         16.31036570	         -1.07669036	        -62.43081067	          5.55099030	        -30.30435643	         66.23992479	         71.92819373	         -3.44257091	          8.34463037	         24.98003067	         -7.75358905	         19.69798020	        136.28588390	         49.01366303	         -6.81070415	          5.61110485	
